<svg xmlns="http://www.w3.org/2000/svg" viewBox="0 0 1574 276" fill="#fff" role="img" aria-label="ARFIN"><title>ARFIN</title><g><path d="M65.2,221.7c-1.4,4-1.6,7.4-0.6,10.2c1,2.8,2.6,5,5,6.5c2.3,1.5,4.7,2.2,7,2.2h2.7v3H17.8v-3h2.7c4.6,0,9.3-1.4,14.2-4.3 c4.9-2.9,8.9-7.7,12.1-14.6H65.2z M129.7,28.8l2.4,26.1l-75,187.8H37.6l77.1-180.3c0.2-0.4,0.9-1.9,2.2-4.6 c1.3-2.7,2.7-5.9,4.2-9.8c1.5-3.8,2.9-7.5,4.1-11.1c1.2-3.6,1.8-6.3,1.8-8.1H129.7z M168.4,165.3v10.2H76.6v-10.2H168.4z M129.7,28.8l92.1,213h-35.1L119.8,67.2L129.7,28.8z M178.9,221.7h33.9c3.2,6.8,7.2,11.7,12.2,14.6c4.9,2.9,9.6,4.3,14.2,4.3h2.4v3 h-76.8v-3h2.7c4,0,7.5-1.7,10.5-5S181.3,227.7,178.9,221.7z"></path><path d="M427.3,55.5h-0.9c-0.2-5.2-2.2-9.6-5.8-13.4c-3.7-3.7-8.2-5.5-13.4-5.5h-3.9v-3h24V55.5z M427.3,221.7v21.9h-24v-3h3.9 c5.2,0,9.6-1.8,13.4-5.5c3.7-3.7,5.6-8.1,5.8-13.4H427.3z M454.3,33.6v210h-27.9v-210H454.3z M491.5,33.6c9,0,17.4,1.2,25.2,3.6 c7.8,2.4,14.4,6,20,10.6c5.5,4.7,9.8,10.6,13,17.5c3.2,7,4.8,15.2,4.8,24.6c0,9.2-2.1,18.1-6.3,26.9c-4.2,8.7-10,15.9-17.5,21.5 c-7.5,5.6-16.3,8.6-26.5,9c4.4,1.6,8.8,4.7,13.2,9.3c4.4,4.6,8.2,9.1,11.4,13.5c0,0.2,1.2,2.1,3.8,5.7c2.5,3.6,5.6,8.1,9.5,13.3 c3.8,5.3,7.7,10.6,11.5,15.8c3.9,5.2,7.4,9.5,10.4,12.9c4,4.8,8,8.8,11.8,12.1c3.9,3.3,8.1,5.9,12.6,7.8c4.5,1.9,9.5,2.8,15.1,2.8 v3h-21c-9.6,0-18.1-1.2-25.5-3.8c-7.4-2.5-13.8-5.9-19.2-10.2c-5.4-4.3-10-8.9-13.8-14c-0.8-1.4-2.5-4-5-7.8 c-2.5-3.8-5.3-8.1-8.4-13c-3.1-4.9-6.2-9.8-9.2-14.5s-5.6-8.9-7.8-12.5c-2.2-3.5-3.6-5.7-4.2-6.8c-3.4-5.4-7.2-10-11.4-14 c-4.2-3.9-8.8-5.9-13.8-6.1v-3c0.2,0,1.7,0.1,4.4,0.1c2.7,0.1,5.8,0.1,9.5-0.1c5.2-0.2,10.7-1.1,16.6-2.7 c5.9-1.6,11.3-4.7,16.2-9.3c4.9-4.6,8.5-11.4,11-20.4c0.6-2,1-4.5,1.3-7.5s0.3-6.1,0.2-9.3c-0.2-13.8-3.7-24.5-10.4-32.2 c-6.7-7.7-15.4-11.7-26.2-12.2c-4.6-0.4-9.4-0.5-14.4-0.4c-5,0.1-9.3,0.1-12.9,0.1c-3.6,0-5.6,0-6,0c0-0.2-0.3-1.1-0.8-2.9 c-0.5-1.7-1.3-4.2-2.2-7.6H491.5z M453.4,221.7h0.9c0,5.2,1.9,9.7,5.7,13.4c3.8,3.7,8.3,5.5,13.5,5.5c0.2,0,1.4,0,3.6,0v3h-23.7 V221.7z"></path><path d="M779.8,55.5h-0.9c0-5.2-1.9-9.6-5.7-13.4c-3.8-3.7-8.3-5.5-13.5-5.5h-3.6l-0.3-3h24V55.5z M779.8,221.7v21.9h-24v-3h3.9 c5.2,0,9.6-1.8,13.3-5.5c3.7-3.7,5.6-8.1,5.8-13.4H779.8z M806.8,33.6v210h-27.9v-210H806.8z M888.4,33.6v10.5h-82.5V33.6H888.4z M874.9,135v10.2h-69V135H874.9z M805.9,221.7h0.9c0.2,5.2,2.1,9.7,5.8,13.4c3.7,3.7,8.1,5.5,13.4,5.5c2.4,0,3.7,0,3.9,0v3h-24 V221.7z M888.4,28.2v8.7l-36.6-3.3c4.4,0,9-0.3,14-0.9c4.9-0.6,9.4-1.3,13.6-2.1C883.6,29.8,886.6,29,888.4,28.2z M874.9,112.8 v22.8h-21V135c5.2-0.2,9.5-2.1,12.9-5.7c3.4-3.6,5.1-7.9,5.1-12.9v-3.6H874.9z M874.9,144.6v22.8h-3v-3.9c0-5-1.7-9.3-5.1-12.9 c-3.4-3.6-7.7-5.4-12.9-5.4v-0.6H874.9z M888.4,43.2v24.6h-3v-4.2c0-5.6-1.9-10.2-5.5-14c-3.7-3.7-8.4-5.5-14-5.5v-0.9H888.4z"></path><path d="M1097.5,55.5h-0.9c-0.2-5.2-2.2-9.6-5.8-13.4c-3.7-3.7-8.2-5.5-13.4-5.5h-3.9v-3h24V55.5z M1097.5,221.7v21.9h-24v-3h3.9 c5.2,0,9.6-1.8,13.4-5.5c3.7-3.7,5.6-8.1,5.8-13.4H1097.5z M1124.5,33.6v210h-27.9v-210H1124.5z M1123.6,55.5V33.6h24v3 c-0.2,0-1.5,0-3.9,0c-5.2,0-9.7,1.9-13.4,5.5c-3.7,3.7-5.7,8.2-5.8,13.4H1123.6z M1123.6,221.7h0.9c0.2,5.2,2.1,9.7,5.8,13.4 c3.7,3.7,8.1,5.5,13.4,5.5c2.4,0,3.7,0,3.9,0v3h-24V221.7z"></path><path d="M1350.4,222.3v21.3h-24.9v-3c3.6,0,5.5,0,5.7,0c5,0,9.3-1.8,12.9-5.4c3.6-3.6,5.4-7.9,5.4-12.9H1350.4z M1349.5,29.1 l23.1,26.4l0.3,188.1h-23.4v-177c0-10.6-1-23.1-3-37.5H1349.5z M1349.5,29.1l180,184.8l3,33.9l-180-184.5L1349.5,29.1z M1372.9,222.3c0,5,1.8,9.3,5.4,12.9c3.6,3.6,7.9,5.4,12.9,5.4c0.2,0,2.1,0,5.7,0v3H1372v-21.3H1372.9z M1484.8,33.6h24.9v21.3 h-0.6c-0.2-5.2-2.1-9.5-5.5-13c-3.5-3.5-7.9-5.2-13-5.2c-3.6,0-5.5,0-5.7,0V33.6z M1532.2,33.6v175.8c0,6.8,0.2,13.2,0.8,19 c0.5,5.9,1.2,12.4,2.2,19.4h-2.7l-23.4-26.7V33.6H1532.2z M1556.2,33.6v3h-5.4c-5,0-9.3,1.8-12.9,5.2c-3.6,3.5-5.5,7.9-5.7,13h-0.9 V33.6H1556.2z"></path></g></svg>